<?xml version="1.0" encoding="UTF-8" standalone="no"?>
<svg
   width="1200"
   height="1200"
   viewBox="0 0 220 220"
   fill="none"
   version="1.1"
   id="svg12"
   sodipodi:docname="icon_espresso_on_dark.svg"
   inkscape:version="1.4.3 (0d15f75, 2025-12-25)"
   xmlns:inkscape="http://www.inkscape.org/namespaces/inkscape"
   xmlns:sodipodi="http://sodipodi.sourceforge.net/DTD/sodipodi-0.dtd"
   xmlns="http://www.w3.org/2000/svg"
   xmlns:svg="http://www.w3.org/2000/svg">
  <defs
     id="defs12" />
  <sodipodi:namedview
     id="namedview12"
     pagecolor="#505050"
     bordercolor="#eeeeee"
     borderopacity="1"
     inkscape:showpageshadow="0"
     inkscape:pageopacity="0"
     inkscape:pagecheckerboard="0"
     inkscape:deskcolor="#505050"
     inkscape:zoom="0.73333333"
     inkscape:cx="599.31818"
     inkscape:cy="640.22727"
     inkscape:window-width="1631"
     inkscape:window-height="1186"
     inkscape:window-x="820"
     inkscape:window-y="81"
     inkscape:window-maximized="0"
     inkscape:current-layer="svg12" />
  <rect
     width="220"
     height="220"
     fill="#1C1410"
     id="rect1" />
  <g
     stroke="#d4956a"
     fill="none"
     transform="translate(49.931862,40.000017)"
     id="g6">
    <path
       d="m 38,105 4,-4 h 26 l 4,4 -4,4 H 42 Z"
       stroke-width="1.2"
       id="path1" />
    <path
       d="m 42,101 3,-15 h 20 l 3,15"
       stroke-width="1.2"
       id="path2" />
    <path
       d="m 45,86 3,-15 h 14 l 3,15"
       stroke-width="1.2"
       id="path3" />
    <path
       d="m 48,71 -4,-7 h 22 l -4,7"
       stroke-width="1.2"
       id="path4" />
    <path
       d="m 44,64 -2,-3 h 26 l -2,3"
       stroke-width="1.2"
       id="path5" />
    <path
       d="M 42,61 V 51 h 4.5 v 5 H 51 v -5 h 4 v 5 h 4 v -5 h 4.5 v 5 H 68 v 5"
       stroke-width="1.2"
       id="path6" />
  </g>
  <g
     stroke="#d4956a"
     fill="none"
     opacity="0.45"
     transform="matrix(-1,0,0,1,173.93186,40.000017)"
     id="g12">
    <path
       d="m 38,105 4,-4 h 26 l 4,4 -4,4 H 42 Z"
       stroke-width="1.1"
       id="path7" />
    <path
       d="m 42,101 3,-15 h 20 l 3,15"
       stroke-width="1.1"
       id="path8" />
    <path
       d="m 45,86 3,-15 h 14 l 3,15"
       stroke-width="1.1"
       id="path9" />
    <path
       d="m 48,71 -4,-7 h 22 l -4,7"
       stroke-width="1.1"
       id="path10" />
    <path
       d="m 44,64 -2,-3 h 26 l -2,3"
       stroke-width="1.1"
       id="path11" />
    <path
       d="M 42,61 V 51 h 4.5 v 5 H 51 v -5 h 4 v 5 h 4 v -5 h 4.5 v 5 H 68 v 5"
       stroke-width="1.1"
       id="path12" />
  </g>
  <line
     x1="110"
     y1="89"
     x2="110"
     y2="150"
     stroke="#D4956A"
     stroke-width="0.5"
     opacity="0.2"
     id="line12" />
</svg>
