<svg width="1200" height="1200" viewBox="0 0 220 220" fill="none" xmlns="http://www.w3.org/2000/svg">
  <rect width="220" height="220" fill="#1C1410"/>
  <g stroke="#D4956A" fill="none" transform="translate(32, 40)">
    <path d="M38 105 L42 101 L68 101 L72 105 L68 109 L42 109 Z" stroke-width="1.2"/>
    <path d="M42 101 L45 86 L65 86 L68 101" stroke-width="1.2"/>
    <path d="M45 86 L48 71 L62 71 L65 86" stroke-width="1.2"/>
    <path d="M48 71 L44 64 L66 64 L62 71" stroke-width="1.2"/>
    <path d="M44 64 L42 61 L68 61 L66 64" stroke-width="1.2"/>
    <path d="M42 61 L42 51 L46.5 51 L46.5 56 L51 56 L51 51 L55 51 L55 56 L59 56 L59 51 L63.5 51 L63.5 56 L68 56 L68 61" stroke-width="1.2"/>
  </g>
  <g stroke="#D4956A" fill="none" opacity="0.45" transform="translate(188, 40) scale(-1, 1) translate(32, 0)">
    <path d="M38 105 L42 101 L68 101 L72 105 L68 109 L42 109 Z" stroke-width="1.1"/>
    <path d="M42 101 L45 86 L65 86 L68 101" stroke-width="1.1"/>
    <path d="M45 86 L48 71 L62 71 L65 86" stroke-width="1.1"/>
    <path d="M48 71 L44 64 L66 64 L62 71" stroke-width="1.1"/>
    <path d="M44 64 L42 61 L68 61 L66 64" stroke-width="1.1"/>
    <path d="M42 61 L42 51 L46.5 51 L46.5 56 L51 56 L51 51 L55 51 L55 56 L59 56 L59 51 L63.5 51 L63.5 56 L68 56 L68 61" stroke-width="1.1"/>
  </g>
  <line x1="110" y1="89" x2="110" y2="150" stroke="#D4956A" stroke-width="0.5" opacity="0.2"/>
</svg>