<svg width="1200" height="1200" viewBox="0 0 220 220" fill="none" xmlns="http://www.w3.org/2000/svg">
  
  <g stroke="#FFFFFF" fill="none" transform="translate(32, 20)">
    <path d="M38 105 L42 101 L68 101 L72 105 L68 109 L42 109 Z" stroke-width="1"/>
    <path d="M42 101 L45 86 L65 86 L68 101" stroke-width="1"/>
    <path d="M45 86 L48 71 L62 71 L65 86" stroke-width="1"/>
    <path d="M48 71 L44 64 L66 64 L62 71" stroke-width="1"/>
    <path d="M44 64 L42 61 L68 61 L66 64" stroke-width="1"/>
    <path d="M42 61 L42 51 L46.5 51 L46.5 56 L51 56 L51 51 L55 51 L55 56 L59 56 L59 51 L63.5 51 L63.5 56 L68 56 L68 61" stroke-width="1"/>
  </g>
  <g stroke="#FFFFFF" fill="none" opacity="0.45" transform="translate(188, 20) scale(-1, 1) translate(32, 0)">
    <path d="M38 105 L42 101 L68 101 L72 105 L68 109 L42 109 Z" stroke-width="0.9"/>
    <path d="M42 101 L45 86 L65 86 L68 101" stroke-width="0.9"/>
    <path d="M45 86 L48 71 L62 71 L65 86" stroke-width="0.9"/>
    <path d="M48 71 L44 64 L66 64 L62 71" stroke-width="0.9"/>
    <path d="M44 64 L42 61 L68 61 L66 64" stroke-width="0.9"/>
    <path d="M42 61 L42 51 L46.5 51 L46.5 56 L51 56 L51 51 L55 51 L55 56 L59 56 L59 51 L63.5 51 L63.5 56 L68 56 L68 61" stroke-width="0.9"/>
  </g>
  <line x1="110" y1="69" x2="110" y2="130" stroke="#FFFFFF" stroke-width="0.4" opacity="0.2"/>
  <text font-family="Georgia, serif" font-weight="600" font-size="11" letter-spacing="6" fill="#FFFFFF" text-anchor="middle" x="110" y="155">DOUBLED ROOK</text>
</svg>