<?xml version="1.0" encoding="UTF-8" standalone="no"?>
<svg
   width="1200"
   height="1200"
   viewBox="0 0 220 220"
   fill="none"
   version="1.1"
   xmlns="http://www.w3.org/2000/svg">
  <rect width="220" height="220" fill="#18201A" />

  <defs>
    <style type="text/css"><![CDATA[
      @import url('https://fonts.googleapis.com/css2?family=Playfair+Display:ital,wght@1,400&display=swap');
      @import url('https://fonts.googleapis.com/css2?family=DM+Serif+Display:ital@0;1&display=swap');
      .tagline-playfair {
        font-family: 'Playfair Display', serif;
        font-style: italic;
        font-weight: 400;
      }
    ]]></style>
  </defs>


  <g id="left-rook-motion">
    <animateTransform
      attributeName="transform"
      type="translate"
      values="0 0; -14 0; 0 0; 0 0"
      keyTimes="0; 0.25; 0.55; 1"
      dur="4.8s"
      repeatCount="indefinite"
      calcMode="spline"
      keySplines="0.42 0 0.58 1; 0.42 0 0.58 1; 0 0 1 1" />
    <g
       stroke="#c8a96e"
       fill="none"
       transform="translate(49.79044,20)">
      <path d="m 38,105 4,-4 h 26 l 4,4 -4,4 H 42 Z" stroke-width="1" />
      <path d="m 42,101 3,-15 h 20 l 3,15" stroke-width="1" />
      <path d="m 45,86 3,-15 h 14 l 3,15" stroke-width="1" />
      <path d="m 48,71 -4,-7 h 22 l -4,7" stroke-width="1" />
      <path d="m 44,64 -2,-3 h 26 l -2,3" stroke-width="1" />
      <path d="M 42,61 V 51 h 4.5 v 5 H 51 v -5 h 4 v 5 h 4 v -5 h 4.5 v 5 H 68 v 5" stroke-width="1" />
    </g>
  </g>

  <g id="right-rook-motion">
    <animateTransform
      attributeName="transform"
      type="translate"
      values="0 0; 14 0; 0 0; 0 0"
      keyTimes="0; 0.25; 0.55; 1"
      dur="4.8s"
      repeatCount="indefinite"
      calcMode="spline"
      keySplines="0.42 0 0.58 1; 0.42 0 0.58 1; 0 0 1 1" />
    <g
       stroke="#c8a96e"
       fill="none"
       opacity="0.45"
       transform="matrix(-1,0,0,1,173.79044,20)">
      <path d="m 38,105 4,-4 h 26 l 4,4 -4,4 H 42 Z" stroke-width="0.9" />
      <path d="m 42,101 3,-15 h 20 l 3,15" stroke-width="0.9" />
      <path d="m 45,86 3,-15 h 14 l 3,15" stroke-width="0.9" />
      <path d="m 48,71 -4,-7 h 22 l -4,7" stroke-width="0.9" />
      <path d="m 44,64 -2,-3 h 26 l -2,3" stroke-width="0.9" />
      <path d="M 42,61 V 51 h 4.5 v 5 H 51 v -5 h 4 v 5 h 4 v -5 h 4.5 v 5 H 68 v 5" stroke-width="0.9" />
    </g>
  </g>

  <text
     font-family="DM Serif Display, serif" font-weight="600"
     font-size="11"
     letter-spacing="6"
     fill="#D4C8A8"
     text-anchor="middle"
     x="110"
     y="155">DOUBLED ROOK</text>

  <text
     class="tagline-playfair"
     font-size="8.16"
     fill="#D7E1D2"
     text-anchor="middle"
     x="110"
     y="166.5">Stay three moves ahead.</text>

</svg>
