<?xml version="1.0" encoding="UTF-8" standalone="no"?>
<svg
   width="350"
   height="350"
   viewBox="0 0 64.166668 64.166667"
   fill="none"
   version="1.1"
   id="svg12"
   sodipodi:docname="favicon.svg"
   inkscape:version="1.4.3 (0d15f75, 2025-12-25)"
   xml:space="preserve"
   xmlns:inkscape="http://www.inkscape.org/namespaces/inkscape"
   xmlns:sodipodi="http://sodipodi.sourceforge.net/DTD/sodipodi-0.dtd"
   xmlns="http://www.w3.org/2000/svg"
   xmlns:svg="http://www.w3.org/2000/svg"><defs
     id="defs12" /><sodipodi:namedview
     id="namedview12"
     pagecolor="#505050"
     bordercolor="#eeeeee"
     borderopacity="1"
     inkscape:showpageshadow="0"
     inkscape:pageopacity="0"
     inkscape:pagecheckerboard="0"
     inkscape:deskcolor="#505050"
     inkscape:zoom="0.73333333"
     inkscape:cx="600"
     inkscape:cy="490.22727"
     inkscape:window-width="1024"
     inkscape:window-height="1186"
     inkscape:window-x="793"
     inkscape:window-y="30"
     inkscape:window-maximized="0"
     inkscape:current-layer="svg12" /><g
     stroke="#c8a96e"
     fill="none"
     transform="translate(-30.551482,-47.766666)"
     id="g6"
     style="fill:#000000"><path
       d="m 38,105 4,-4 h 26 l 4,4 -4,4 H 42 Z"
       stroke-width="1.2"
       id="path1"
       style="fill:#000000" /><path
       d="m 42,101 3,-15 h 20 l 3,15"
       stroke-width="1.2"
       id="path2"
       style="fill:#000000" /><path
       d="m 45,86 3,-15 h 14 l 3,15"
       stroke-width="1.2"
       id="path3"
       style="fill:#000000" /><path
       d="m 48,71 -4,-7 h 22 l -4,7"
       stroke-width="1.2"
       id="path4"
       style="fill:#000000" /><path
       d="m 44,64 -2,-3 h 26 l -2,3"
       stroke-width="1.2"
       id="path5"
       style="fill:#000000" /><path
       d="M 42,61 V 51 h 4.5 v 5 H 51 v -5 h 4 v 5 h 4 v -5 h 4.5 v 5 H 68 v 5"
       stroke-width="1.2"
       id="path6"
       style="fill:#000000" /></g><g
     stroke="#c8a96e"
     fill="none"
     opacity="0.45"
     transform="matrix(-1,0,0,1,93.44842,-47.766666)"
     id="g12"
     style="fill:#000000"><path
       d="m 38,105 4,-4 h 26 l 4,4 -4,4 H 42 Z"
       stroke-width="1.1"
       id="path7"
       style="fill:#000000" /><path
       d="m 42,101 3,-15 h 20 l 3,15"
       stroke-width="1.1"
       id="path8"
       style="fill:#000000" /><path
       d="m 45,86 3,-15 h 14 l 3,15"
       stroke-width="1.1"
       id="path9"
       style="fill:#000000" /><path
       d="m 48,71 -4,-7 h 22 l -4,7"
       stroke-width="1.1"
       id="path10"
       style="fill:#000000" /><path
       d="m 44,64 -2,-3 h 26 l -2,3"
       stroke-width="1.1"
       id="path11"
       style="fill:#000000" /><path
       d="M 42,61 V 51 h 4.5 v 5 H 51 v -5 h 4 v 5 h 4 v -5 h 4.5 v 5 H 68 v 5"
       stroke-width="1.1"
       id="path12"
       style="fill:#000000" /></g></svg>
